<svg width="40" height="40" viewBox="0 0 40 40" fill="none" xmlns="http://www.w3.org/2000/svg">
<path d="M4 0.5H36C37.933 0.5 39.5 2.067 39.5 4V36C39.5 37.933 37.933 39.5 36 39.5H4C2.067 39.5 0.5 37.933 0.5 36V4C0.5 2.067 2.067 0.5 4 0.5Z" fill="white" stroke="#D9D9D9"/>
<path d="M11.4268 10.5984C11.2177 11.265 11.0824 11.9175 11.0663 12.5876C11.0535 13.1084 11.0553 13.6281 11.1377 14.1471C11.2864 15.0892 11.5865 15.9772 12.0565 16.8138C12.4917 17.5875 13.0384 18.2698 13.7124 18.8611C14.4646 19.5194 15.3045 20.0368 16.2386 20.4075C16.6407 20.5667 17.0597 20.6785 17.4814 20.7822C18.0083 20.9108 18.5481 20.9406 19.0852 20.9763C19.523 21.0053 19.9625 20.949 20.3986 20.9024C21.1593 20.8204 21.8835 20.6023 22.5847 20.3146C22.9027 20.1844 23.2155 20.0368 23.507 19.8535C23.5384 19.8336 23.569 19.7948 23.6047 19.8228C23.6388 19.8485 23.6159 19.8901 23.6031 19.9257C23.071 21.38 22.1743 22.5848 20.9298 23.53C19.9718 24.2582 18.8949 24.7531 17.6988 25.0225C16.8251 25.2199 15.9471 25.2524 15.0682 25.1901C14.2649 25.132 13.488 24.9298 12.7365 24.6263C11.8193 24.2548 11.0016 23.7515 10.2715 23.0948C9.34494 22.2614 8.65133 21.2855 8.19743 20.1381C7.86266 19.2931 7.67641 18.4249 7.6509 17.5178C7.62377 16.5791 7.75372 15.6705 8.05646 14.7774C8.54015 13.3487 9.38758 12.1671 10.5486 11.192C10.7976 10.983 11.0757 10.8065 11.3417 10.6159C11.3554 10.6059 11.3774 10.6083 11.4268 10.5984Z" fill="#1F1B18"/>
<path d="M20.2112 5.00366C20.7857 4.9756 21.38 5.1149 21.9775 5.22176C22.6891 5.34952 23.3561 5.6124 23.9947 5.93657C24.5471 6.21856 25.0606 6.56263 25.539 6.95725C25.8009 7.17276 26.0541 7.39763 26.2803 7.64459C26.5735 7.96558 26.866 8.29135 27.0767 8.67442C27.0963 8.70925 27.1447 8.74586 27.1065 8.79064C27.0649 8.8386 27.0308 8.78308 26.9917 8.77313C26.4103 8.62049 25.828 8.48876 25.2289 8.41154C24.7578 8.35105 24.2886 8.3602 23.8194 8.36279C23.5169 8.36438 23.2195 8.44139 22.9202 8.47224C22.4867 8.51522 22.0803 8.64875 21.6629 8.74487C21.5364 8.77472 21.4157 8.83124 21.2949 8.88258C20.9591 9.02606 20.6133 9.15043 20.2961 9.32615C19.986 9.49789 19.6757 9.67361 19.3893 9.88833C18.9413 10.225 18.5145 10.5832 18.1296 10.987C17.5608 11.5816 17.1351 12.2698 16.755 12.9896C16.4431 13.579 16.2858 14.2166 16.1447 14.8534C16.0478 15.293 16.0394 15.7515 16.0214 16.2042C15.9968 16.8269 16.0724 17.4412 16.1924 18.0482C16.2815 18.5051 16.4507 18.9421 16.6251 19.3757C16.7397 19.6619 16.874 19.9405 17.0441 20.2007C17.1069 20.2961 17.0508 20.2969 16.9735 20.3044C16.8868 20.3128 16.8299 20.2597 16.7644 20.2272C16.1243 19.913 15.5133 19.5556 14.9539 19.1162C14.2254 18.5441 13.633 17.8551 13.1501 17.0822C12.8739 16.6386 12.6478 16.1668 12.4667 15.6711C12.3163 15.2572 12.188 14.8442 12.1174 14.4132C12.0595 14.0592 11.9916 13.7068 11.9942 13.3468C11.995 13.0857 11.9899 12.8244 11.9975 12.5633C12.0171 11.9422 12.1319 11.341 12.318 10.744C12.4243 10.4075 12.5356 10.0758 12.6878 9.75898C12.9088 9.30128 13.1544 8.85611 13.4579 8.44139C13.7792 8.0028 14.1209 7.58489 14.5298 7.22251C15.0594 6.75327 15.6295 6.34194 16.2587 6.00284C16.7738 5.72603 17.3238 5.53698 17.8728 5.35111C18.3012 5.20604 18.7628 5.17619 19.2073 5.08166C19.5278 5.01361 19.8473 5.00545 20.2112 5.00366Z" fill="#E47717"/>
<path d="M23.3139 14.073C23.9906 14.2945 24.5642 14.626 25.1116 14.9834C25.6846 15.3565 26.192 15.8218 26.6477 16.3316C27.2528 17.0108 27.7136 17.7802 28.0655 18.606C28.2091 18.9419 28.2966 19.3009 28.3901 19.6575C28.5925 20.4329 28.6834 21.2155 28.6163 22.0107C28.5796 22.4344 28.5423 22.8664 28.4276 23.2744C28.3391 23.5878 28.2448 23.907 28.1318 24.2178C27.9584 24.6988 27.7177 25.1408 27.4678 25.5794C27.3097 25.858 27.121 26.1243 26.9188 26.3738C26.6408 26.7187 26.339 27.0447 26.0016 27.3382C25.5442 27.7362 25.0565 28.0894 24.5234 28.3903C24.015 28.6789 23.4795 28.9011 22.9298 29.0834C22.4834 29.2319 22.0185 29.3182 21.5466 29.3829C21.0172 29.455 20.4885 29.5461 19.9589 29.4782C19.3987 29.4068 18.8352 29.3455 18.2852 29.1897C17.6298 29.003 16.9957 28.7742 16.3982 28.4516C15.652 28.0486 14.9992 27.5288 14.4065 26.9292C14.1228 26.6433 13.9026 26.3074 13.6323 26.0122C13.6093 25.9866 13.566 25.9591 13.5966 25.9177C13.6272 25.8737 13.6764 25.8887 13.718 25.902C14.2484 26.0636 14.7874 26.1673 15.3409 26.2361C15.9078 26.3066 16.4721 26.3115 17.0322 26.2735C17.5908 26.2353 18.1432 26.1151 18.6838 25.9575C19.2092 25.8049 19.7192 25.6101 20.1961 25.3472C20.7018 25.0696 21.1914 24.7693 21.6325 24.3938C21.8918 24.1731 22.1433 23.9468 22.3814 23.7072C22.6823 23.4045 22.9185 23.0529 23.1762 22.7164C23.5026 22.2885 23.7227 21.8034 23.9377 21.3192C24.1503 20.839 24.2837 20.33 24.3959 19.8142C24.543 19.1443 24.5148 18.4709 24.5159 17.7969C24.5167 17.4047 24.4343 17.0258 24.3543 16.6435C24.2829 16.3052 24.2013 15.9719 24.073 15.6527C23.88 15.1743 23.6854 14.6949 23.4022 14.2563C23.3716 14.2107 23.3547 14.1584 23.3139 14.073Z" fill="#E47717"/>
<path d="M28.8045 24.3252C30.0795 20.8212 29.555 17.6636 26.6378 15.1685C23.7385 12.6886 20.46 12.5708 17.0711 14.1678C18.1795 11.6952 21.0669 9.53523 24.6386 9.60827C28.4314 9.68608 31.3851 12.1298 32.3542 15.2665C33.5341 19.0914 31.6334 22.6758 28.8045 24.3252Z" fill="#1F1B18"/>
<path d="M3 33.8669C3.02387 33.7965 3.06793 33.804 3.10282 33.8007C3.42086 33.7692 3.50572 33.6805 3.51674 33.3595C3.54326 32.5768 3.52694 31.7931 3.52367 31.0105C3.52286 30.8355 3.32804 30.6381 3.12322 30.5926C3.08242 30.5834 3.03142 30.6001 3.00938 30.5462C3.04508 30.4972 3.09853 30.508 3.14709 30.508C3.42759 30.5096 3.70809 30.5263 3.98778 30.5096C4.17648 30.4988 4.28603 30.5693 4.39742 30.7104C4.85989 31.2917 5.3342 31.862 5.80769 32.4341C5.8391 32.4723 5.85767 32.5535 5.92907 32.527C5.98782 32.5046 5.95538 32.4367 5.9564 32.3927C5.9615 31.94 5.9666 31.4873 5.96314 31.0337C5.96048 30.7285 5.85848 30.6274 5.54922 30.5918C5.51596 30.5884 5.48455 30.5884 5.46068 30.5295H6.59983C6.59473 30.6033 6.53863 30.5868 6.50028 30.5967C6.21467 30.6714 6.13899 30.7693 6.13899 31.0759C6.13817 31.9772 6.13899 32.8787 6.13817 33.7808C6.13817 33.8389 6.16285 33.9035 6.09492 33.9722C5.95028 33.808 5.80503 33.648 5.66652 33.4838C5.18201 32.9109 4.69995 32.3354 4.2181 31.7609C4.08121 31.5991 3.9478 31.4333 3.81091 31.2718C3.78459 31.2401 3.75991 31.1922 3.70462 31.221C3.66382 31.2409 3.66811 31.2783 3.67056 31.3173C3.71238 31.9499 3.68178 32.5834 3.68769 33.217C3.69198 33.6514 3.71054 33.6836 4.13976 33.8048C4.17301 33.814 4.20525 33.8239 4.19586 33.8611C4.1926 33.8777 4.1569 33.8986 4.13895 33.896C3.76338 33.847 3.38332 33.8986 3 33.8669" fill="#1F1B18"/>
<path d="M8.05946 34.8294C8.31957 34.8252 8.56274 34.8402 8.76939 34.6852C8.84997 34.6263 8.90791 34.5459 8.88567 34.4505C8.86711 34.3668 8.80081 34.2864 8.70717 34.2772C8.33752 34.24 7.9695 34.1628 7.59536 34.2589C7.49173 34.2856 7.39748 34.3037 7.37708 34.4231C7.35566 34.5508 7.40258 34.6495 7.51131 34.7283C7.68553 34.8519 7.88871 34.8071 8.05946 34.8294ZM7.65921 32.3584C7.64228 32.5186 7.66166 32.6836 7.72286 32.8428C7.77386 32.9745 7.87688 33.0549 8.01968 33.0591C8.15555 33.0625 8.31794 32.8991 8.34609 32.7698C8.40545 32.4928 8.39362 32.2183 8.34609 31.9415C8.31549 31.7614 8.20492 31.642 8.0511 31.6331C7.88443 31.6221 7.76284 31.7308 7.70756 31.9107C7.6635 32.056 7.65248 32.201 7.65921 32.3584ZM7.33362 34.1761C6.90093 33.7897 6.94602 33.472 7.45766 33.1992C7.49764 33.1777 7.54354 33.1686 7.54028 33.1138C7.53763 33.0641 7.48581 33.0675 7.45684 33.0526C7.1339 32.8892 6.95703 32.6538 6.96132 32.2772C6.9656 31.9157 7.36851 31.5791 7.6839 31.5218C7.9389 31.4747 8.17942 31.5145 8.43095 31.5692C8.65536 31.619 8.89853 31.5865 9.13395 31.5883C9.22065 31.5891 9.2947 31.5791 9.29123 31.7093C9.28776 31.8345 9.23166 31.8585 9.12538 31.846C9.10681 31.8436 9.08723 31.842 9.06846 31.846C9.00298 31.8609 8.91036 31.8138 8.87547 31.8818C8.83977 31.9515 8.93423 31.9945 8.96564 32.051C9.11701 32.3186 9.05908 32.7881 8.67066 32.9978C8.39709 33.1463 8.11148 33.2084 7.79773 33.1769C7.60556 33.157 7.49009 33.2722 7.50356 33.4307C7.51376 33.5485 7.57679 33.6147 7.69573 33.6205C7.86668 33.6289 8.03906 33.6362 8.21083 33.6312C8.403 33.6255 8.59089 33.6553 8.78041 33.6778C8.97584 33.7017 9.25125 33.9489 9.28532 34.1429C9.32938 34.3958 9.19861 34.5864 9.0142 34.7425C8.78714 34.9339 8.49562 34.9604 8.21675 34.987C7.90646 35.0177 7.59638 34.9829 7.29711 34.8842C7.12799 34.8294 6.97743 34.7532 6.96723 34.555C6.95622 34.3494 7.10759 34.2714 7.27589 34.2133C7.29282 34.2076 7.30649 34.1934 7.33362 34.1761Z" fill="#1F1B18"/>
<path d="M28.9311 34.8322C29.1794 34.8182 29.4089 34.8431 29.6094 34.7004C29.6961 34.6381 29.7547 34.5569 29.7404 34.46C29.7267 34.3655 29.6435 34.2899 29.5466 34.2783C29.1904 34.2362 28.8334 34.1639 28.4729 34.2535C28.3623 34.2809 28.2536 34.2967 28.2316 34.4417C28.2077 34.5926 28.2944 34.6706 28.4023 34.7444C28.5725 34.8596 28.7703 34.8065 28.9311 34.8322ZM29.2328 32.3855C29.2328 32.3041 29.2363 32.2352 29.232 32.1681C29.2269 32.0877 29.2159 32.0081 29.2038 31.9285C29.1767 31.7526 29.057 31.6342 28.8954 31.635C28.7212 31.635 28.6267 31.7319 28.5725 31.8903C28.4949 32.12 28.5129 32.3546 28.5153 32.5876C28.518 32.7419 28.5765 32.873 28.6914 32.9791C28.8428 33.1184 29.1445 33.0312 29.1818 32.829C29.21 32.679 29.2599 32.5287 29.2328 32.3855ZM28.9872 33.6407C29.2661 33.6392 29.5456 33.63 29.8108 33.7369C30.1202 33.8612 30.2222 34.2385 30.0566 34.5221C29.8534 34.8704 29.5117 34.935 29.163 34.9806C28.8146 35.0254 28.4643 34.9932 28.1304 34.8769C27.9809 34.8248 27.8413 34.7468 27.8244 34.5653C27.8075 34.3737 27.9468 34.2941 28.0896 34.2236C28.1414 34.198 28.2273 34.1872 28.1379 34.1241C27.9707 34.0055 27.8558 33.8654 27.9033 33.6557C27.9492 33.4501 28.0963 33.3124 28.2791 33.2129C28.3293 33.1864 28.4082 33.183 28.4101 33.1208C28.4117 33.0553 28.325 33.0537 28.2783 33.0312C27.7028 32.7536 27.6416 32.0147 28.2053 31.6673C28.4815 31.4981 28.8095 31.4484 29.1265 31.5337C29.4105 31.6117 29.6926 31.5727 29.9758 31.5902C30.0625 31.5952 30.1543 31.5612 30.1535 31.7088C30.1535 31.8505 30.077 31.8581 29.9723 31.8521C29.9272 31.8497 29.8822 31.8505 29.8381 31.8521C29.7251 31.8563 29.7106 31.9079 29.7649 31.9964C29.9383 32.275 29.9036 32.5628 29.7377 32.8165C29.6282 32.9848 29.4207 33.0629 29.2242 33.1325C29.0323 33.2014 28.8366 33.1747 28.6404 33.1789C28.4984 33.1823 28.3725 33.2163 28.3666 33.3928C28.3607 33.5604 28.4431 33.6358 28.6439 33.6415C28.7008 33.6431 28.7585 33.6407 28.8154 33.6407H28.9872Z" fill="#1F1B18"/>
<path d="M20.0627 31.6456C20.1086 31.5576 20.1657 31.5592 20.2234 31.5592C20.447 31.561 20.6696 31.5652 20.8923 31.5602C21.0062 31.5584 21.0572 31.5933 21.0488 31.7111C21.0386 31.8279 21.0453 31.9465 21.0429 32.0643C21.0419 32.124 21.0437 32.1811 21.1253 32.1821C21.2298 32.1837 21.3336 32.1646 21.4083 32.0933C21.4678 32.0368 21.3956 31.9921 21.3565 31.959C21.2443 31.8619 21.1508 31.7582 21.2638 31.6124C21.3675 31.478 21.5154 31.4647 21.6549 31.5427C21.7942 31.6215 21.8334 31.7542 21.7916 31.9093C21.7194 32.1861 21.4856 32.2484 21.2502 32.2575C21.0633 32.2657 21.0317 32.3314 21.0402 32.4906C21.0531 32.7375 21.0437 32.9871 21.0437 33.2358C21.0437 33.6398 21.0437 33.6398 21.2893 33.8744H20.396C20.3391 33.8744 20.3203 33.8412 20.3228 33.789C20.3254 33.7351 20.3228 33.6804 20.3228 33.6249C20.232 33.605 20.2106 33.682 20.1708 33.7194C19.9429 33.9307 19.6718 34.0053 19.3803 33.91C19.0928 33.8179 19.0002 33.5741 18.9739 33.2981C18.9305 32.8338 18.9731 32.367 18.9492 31.9025C18.9425 31.7765 18.9476 31.6587 18.7715 31.6563C18.746 31.6555 18.7163 31.6438 18.7232 31.6149C18.7283 31.595 18.7546 31.5668 18.7715 31.5668C19.0453 31.5642 19.3191 31.5592 19.5918 31.571C19.6836 31.5742 19.671 31.6629 19.671 31.7326C19.6691 32.1622 19.6691 32.5908 19.6718 33.0195C19.6726 33.1439 19.6812 33.2674 19.6938 33.391C19.7185 33.6272 19.8885 33.7011 20.0933 33.5626C20.2412 33.4623 20.3424 33.3494 20.3313 33.1439C20.3109 32.7467 20.3203 32.3487 20.3262 31.9507C20.3279 31.7773 20.2812 31.6563 20.0627 31.6456Z" fill="#1F1B18"/>
<path d="M12.2366 31.6569C12.2621 31.5632 12.308 31.5582 12.352 31.5582C12.5885 31.5574 12.8231 31.5582 13.0593 31.5608C13.1401 31.5616 13.2115 31.5757 13.2099 31.6826C13.2064 31.826 13.2598 31.8095 13.3517 31.7349C13.5567 31.5673 13.7843 31.4935 14.0632 31.5118C14.2911 31.5275 14.5179 31.7912 14.541 32.0167C14.585 32.4314 14.5587 32.8475 14.5697 33.2622C14.5724 33.3798 14.5791 33.4977 14.5928 33.6147C14.603 33.7058 14.6148 33.8027 14.7474 33.8027C14.7815 33.8037 14.8113 33.821 14.8011 33.8616C14.795 33.8865 14.7705 33.9006 14.7423 33.8965C14.3819 33.8485 14.0198 33.8873 13.6587 33.8674C13.6493 33.8674 13.6407 33.8525 13.6144 33.831C13.86 33.7679 13.86 33.5838 13.8576 33.3958C13.8533 32.9661 13.8464 32.5375 13.8557 32.1096C13.8592 31.9646 13.8133 31.8625 13.6832 31.8137C13.5414 31.7614 13.4241 31.8509 13.3304 31.9363C13.2539 32.0059 13.2029 32.1046 13.2048 32.2191C13.2088 32.6535 13.208 33.0889 13.2139 33.5233C13.2166 33.6461 13.219 33.7804 13.3943 33.8045C13.4222 33.8087 13.4359 33.8294 13.4308 33.8584C13.4241 33.8923 13.3967 33.8891 13.3712 33.8873C13.0169 33.8658 12.6623 33.8666 12.308 33.8899C12.2892 33.8907 12.2562 33.8716 12.25 33.8535C12.2347 33.8111 12.2774 33.8069 12.3053 33.8003C12.4642 33.7689 12.4897 33.6594 12.4889 33.5233C12.4865 32.9894 12.4889 32.4563 12.4873 31.9214C12.4873 31.7679 12.4704 31.6229 12.2366 31.6569Z" fill="#1F1B18"/>
<path d="M15.0975 30.5273H16.9589C16.8926 30.6218 16.811 30.5846 16.7457 30.5896C16.5366 30.6069 16.3844 30.7438 16.4021 30.9345C16.4421 31.3691 16.4107 31.8027 16.4193 32.2379C16.426 32.6102 16.4244 32.9834 16.4252 33.3557C16.426 33.6068 16.4609 33.6765 16.71 33.7113C16.9164 33.7396 17.1323 33.728 17.3416 33.7073C17.8506 33.6566 18.0554 33.2984 18.1898 32.8765C18.2008 32.8407 18.2084 32.8035 18.2229 32.7694C18.2357 32.7422 18.2577 32.7131 18.2951 32.7231C18.3342 32.7346 18.33 32.7728 18.3267 32.8019C18.2867 33.1135 18.239 33.4238 18.2059 33.7362C18.1931 33.8624 18.1302 33.8765 18.0197 33.8755C17.1977 33.8723 16.3758 33.8773 15.5539 33.8705C15.4095 33.8689 15.2573 33.942 15.0957 33.8474C15.1502 33.7901 15.2079 33.8058 15.2589 33.8043C15.4994 33.7935 15.5657 33.7412 15.581 33.5141C15.621 32.9362 15.5939 32.3581 15.599 31.7802C15.6006 31.4817 15.5947 31.1832 15.5829 30.8855C15.5743 30.6684 15.4962 30.6045 15.2632 30.5904C15.2095 30.588 15.1459 30.6129 15.0973 30.5273" fill="#1F1B18"/>
<path d="M24.8313 33.8194C25.0581 33.8021 25.093 33.6644 25.0922 33.4829C25.0879 32.9671 25.0973 32.4521 25.0949 31.9365C25.0938 31.8178 25.1049 31.6744 24.9196 31.6579C24.8925 31.6553 24.8713 31.6421 24.8729 31.6113C24.8754 31.5707 24.907 31.5599 24.9392 31.5599C25.1942 31.5599 25.4484 31.5576 25.7016 31.5641C25.7807 31.5665 25.8309 31.6113 25.8097 31.7026C25.8011 31.7424 25.7893 31.7954 25.8478 31.8113C25.8929 31.8244 25.9117 31.7788 25.938 31.7548C26.1487 31.5691 26.3809 31.4571 26.6792 31.5136C26.9929 31.5725 27.162 31.8294 27.1688 32.2332C27.1757 32.6743 27.1798 33.1147 27.1892 33.5557C27.1918 33.6785 27.1859 33.8186 27.383 33.8045C27.406 33.8029 27.4366 33.8202 27.4297 33.851C27.417 33.9008 27.3762 33.8883 27.3371 33.8875C27.0643 33.8809 26.7922 33.8775 26.5186 33.8733C26.5066 33.8733 26.4921 33.8759 26.4803 33.8717C26.4054 33.8411 26.2924 33.9422 26.2593 33.86C26.2269 33.7788 26.3597 33.7772 26.4148 33.734C26.459 33.7 26.4505 33.657 26.4505 33.6162C26.4531 33.0948 26.459 32.5733 26.4513 32.0517C26.4488 31.8584 26.295 31.7731 26.1063 31.8393C25.9423 31.8974 25.807 32.0773 25.8105 32.2507C25.8172 32.7042 25.7901 33.1577 25.8232 33.6104C25.8309 33.7068 25.8291 33.8029 25.9702 33.8021C26.0017 33.8021 26.0323 33.8194 26.0196 33.8618C26.0102 33.8958 25.9821 33.8875 25.9584 33.8859C25.6108 33.8642 25.264 33.8668 24.9172 33.8948C24.8856 33.8974 24.855 33.8791 24.8313 33.8194Z" fill="#1F1B18"/>
<path d="M34.4339 33.8588C34.6752 33.785 34.6763 33.6067 34.6752 33.421C34.6712 32.9293 34.6744 32.4384 34.6712 31.9474C34.6701 31.8181 34.6787 31.6738 34.4857 31.6565C34.4594 31.6539 34.4314 31.6382 34.4433 31.6083C34.4508 31.5892 34.4763 31.5636 34.4935 31.5636C34.767 31.5636 35.0408 31.5643 35.3138 31.5743C35.4045 31.5777 35.3852 31.6565 35.386 31.7178C35.3868 31.751 35.3723 31.8 35.4174 31.8157C35.4582 31.8298 35.4896 31.7958 35.5143 31.7701C35.6383 31.6416 35.783 31.5512 35.9615 31.5088C36.286 31.4334 36.6473 31.63 36.7102 31.9624C36.785 32.3572 36.7418 32.7544 36.7561 33.1506C36.7603 33.2618 36.7579 33.3737 36.7622 33.4857C36.774 33.7402 36.7748 33.7402 37 33.8314C36.9805 33.9251 36.905 33.8952 36.8489 33.8919C36.5343 33.8746 36.2197 33.8612 35.9035 33.8945C35.867 33.8976 35.8211 33.9068 35.8101 33.8588C35.7964 33.7981 35.8517 33.818 35.8831 33.8073C35.9862 33.7693 36.0208 33.6813 36.0278 33.5868C36.0592 33.0778 36.0584 32.5677 36.0286 32.0595C36.0141 31.8157 35.7923 31.7385 35.59 31.8927C35.4633 31.989 35.3758 32.1026 35.3825 32.2841C35.3986 32.6937 35.3903 33.1042 35.3911 33.5138C35.3911 33.6407 35.3884 33.7667 35.5559 33.8031C35.5841 33.8081 35.6249 33.8198 35.6018 33.862C35.5916 33.8795 35.5586 33.8994 35.5398 33.896C35.1769 33.8421 34.8113 33.8853 34.4339 33.8588Z" fill="#1F1B18"/>
<path d="M23.4203 32.753C23.4203 32.6883 23.4212 32.6577 23.4203 32.6262C23.4083 32.3798 23.4552 32.1287 23.3532 31.8907C23.291 31.7448 23.2121 31.6294 23.0191 31.6519C22.8516 31.671 22.77 31.7598 22.7241 31.914C22.6339 32.2075 22.6604 32.506 22.6612 32.8019C22.6612 33.0358 22.629 33.2722 22.7063 33.5034C22.7785 33.7223 22.8695 33.8119 23.0505 33.8069C23.2553 33.8011 23.3234 33.6592 23.3718 33.4968C23.4483 33.2413 23.4042 32.9786 23.4203 32.753ZM23.0462 33.9396C22.4054 33.9794 22.0076 33.496 21.9175 32.9163C21.8385 32.4015 22.1045 31.836 22.504 31.6205C22.9205 31.3956 23.4389 31.4644 23.7841 31.7854C23.9006 31.8957 24.0119 32.0242 24.2074 31.9844C24.3808 31.9496 24.4055 31.8931 24.2949 31.7655C24.2125 31.6702 24.1129 31.5715 24.21 31.4404C24.289 31.3327 24.4138 31.2812 24.5432 31.3319C24.7005 31.3924 24.7692 31.5249 24.7488 31.6875C24.726 31.88 24.5628 32.0292 24.3587 32.0565C24.0315 32.1004 24.0348 32.0997 24.119 32.3966C24.2525 32.8608 24.1419 33.2761 23.8275 33.6353C23.6174 33.8749 23.4314 33.9346 23.0462 33.9396Z" fill="#1F1B18"/>
<path d="M10.9128 32.984H10.9093C10.9093 32.8788 10.9093 32.7743 10.9104 32.6698C10.9104 32.6018 10.8814 32.5677 10.8194 32.6133C10.6441 32.7419 10.4522 32.8563 10.3636 33.067C10.3102 33.193 10.3075 33.3265 10.4028 33.431C10.4887 33.5247 10.6103 33.5371 10.7351 33.4907C10.8712 33.441 10.934 33.3514 10.9144 33.2063C10.9042 33.1333 10.9128 33.0579 10.9128 32.984ZM11.914 33.5578C11.8528 33.7502 11.648 33.8995 11.4193 33.916C11.1874 33.9335 11.054 33.8628 10.9571 33.6523C10.9104 33.5494 10.8618 33.5842 10.7971 33.624C10.639 33.7245 10.4972 33.8455 10.3008 33.8837C10.028 33.9359 9.85199 33.9026 9.73469 33.7418C9.60555 33.5635 9.6182 33.3405 9.76447 33.1275C9.95052 32.8579 10.2514 32.7452 10.5278 32.6051C10.9257 32.4028 10.9171 32.4111 10.9069 31.9691C10.9026 31.7851 10.7998 31.7112 10.6586 31.6673C10.5032 31.6191 10.362 31.6673 10.2431 31.7825C10.1537 31.8688 10.2498 31.9226 10.282 31.9723C10.4232 32.188 10.424 32.2967 10.2616 32.4143C10.1164 32.518 9.84771 32.469 9.73979 32.309C9.64717 32.1723 9.69899 32.037 9.77896 31.9136C9.90217 31.722 10.0943 31.6151 10.311 31.5604C10.6315 31.4808 10.9579 31.441 11.2682 31.6002C11.5326 31.7353 11.6166 31.9715 11.6166 32.2469C11.6166 32.6201 11.6123 32.9932 11.6217 33.3645C11.6284 33.6374 11.6601 33.6523 11.914 33.5578Z" fill="#1F1B18"/>
<path d="M32.8207 31.6518C32.6491 31.6717 32.6728 31.7935 32.6924 31.903C32.7289 32.1245 32.8615 32.3125 32.9414 32.5191C32.9957 32.6608 33.0749 32.7951 33.1259 32.9404C33.1403 32.981 33.1573 33.0082 33.2015 33.009C33.2534 33.0108 33.2525 32.9668 33.2644 32.9328C33.3782 32.6136 33.5398 32.3125 33.6393 31.9868C33.7048 31.772 33.6997 31.7354 33.4761 31.6592C33.4429 31.6477 33.4123 31.6359 33.4217 31.5995C33.4292 31.5639 33.4651 31.5597 33.4973 31.5597H34.0702C34.1034 31.5597 34.1383 31.5623 34.1475 31.5979C34.1561 31.6343 34.1332 31.6526 34.0957 31.6592C33.9792 31.6791 33.9333 31.772 33.8925 31.8616C33.7242 32.2256 33.5704 32.5971 33.3953 32.9577C33.2517 33.252 33.1148 33.5489 32.9916 33.8508C32.9755 33.8914 32.9806 33.9394 32.9194 33.9419C32.8582 33.9435 32.8317 33.9079 32.8088 33.8574C32.5971 33.3772 32.3863 32.8972 32.1705 32.4188C32.0769 32.2114 31.9749 32.0075 31.8721 31.8035C31.8262 31.7123 31.7395 31.6642 31.6434 31.6071C31.8729 31.5456 32.1016 31.5689 32.3286 31.5655C32.4306 31.5995 32.5326 31.6003 32.6354 31.5673C32.7042 31.5655 32.7731 31.5506 32.8394 31.5788C32.8335 31.6029 32.8276 31.6278 32.8207 31.6518Z" fill="#1F1B18"/>
<path d="M11.5034 31.2393C11.4132 31.2749 11.3469 31.2626 11.2763 31.1987C11.1319 31.0694 10.9764 30.9516 10.8302 30.8248C10.7596 30.7633 10.7061 30.7601 10.6329 30.8214C10.4833 30.9458 10.3252 31.0594 10.1747 31.183C10.1237 31.2236 10.0737 31.2542 10.0056 31.255C9.93682 31.2558 9.90439 31.231 9.94274 31.1655C10.1008 30.9002 10.2614 30.6357 10.4213 30.3713C10.4723 30.2875 10.5582 30.3315 10.6286 30.3181C10.9024 30.2658 11.075 30.3587 11.177 30.6232C11.2577 30.8339 11.3877 31.0254 11.5034 31.2393Z" fill="#1F1B18"/>
<path d="M23.4371 34.58C23.4347 34.8047 23.2306 34.9914 22.9993 34.9806C22.8116 34.9723 22.5913 34.75 22.5982 34.5751C22.6058 34.3496 22.8004 34.1629 23.0299 34.1621C23.2637 34.1621 23.4398 34.3428 23.4371 34.58Z" fill="#1F1B18"/>
<path d="M30.9214 33.1358C31.1364 33.1358 31.3337 33.3272 31.3353 33.5354C31.338 33.7451 31.1391 33.9425 30.9257 33.9417C30.6723 33.9401 30.5101 33.7825 30.5101 33.5403C30.5101 33.3049 30.6817 33.1358 30.9214 33.1358Z" fill="#1F1B18"/>
<path d="M32.6371 31.5672C32.534 31.6004 32.4318 31.5988 32.3295 31.5656C32.4326 31.5373 32.5348 31.5457 32.6371 31.5672Z" fill="#1F1B18"/>
<path d="M32.8203 31.6511C32.8272 31.627 32.8331 31.6021 32.8391 31.578C32.873 31.5772 32.9088 31.5922 32.9029 31.6228C32.8953 31.661 32.8595 31.6733 32.8203 31.6511Z" fill="#1F1B18"/>
</svg>
