<svg xmlns="http://www.w3.org/2000/svg" xmlns:xlink="http://www.w3.org/1999/xlink" width="32" height="32" viewBox="0 0 32 32">
    <defs>
        <path id="flrgi2kzfa" d="M10.692 3h10.616c2.675 0 3.645.278 4.623.801.977.523 1.745 1.29 2.268 2.268.523.978.801 1.948.801 4.623v10.616c0 2.675-.278 3.645-.801 4.623-.523.977-1.29 1.745-2.268 2.268-.978.523-1.948.801-4.623.801H10.692c-2.675 0-3.645-.278-4.623-.801-.977-.523-1.745-1.29-2.268-2.268C3.278 24.953 3 23.983 3 21.308V10.692c0-2.675.278-3.645.801-4.623.523-.977 1.29-1.745 2.268-2.268C7.047 3.278 8.017 3 10.692 3z"/>
    </defs>
    <g fill="none" fill-rule="evenodd">
        <g>
            <g transform="translate(-412 -50) translate(412 50)">
                <mask id="hbv08tcejb" fill="#fff">
                    <use xlink:href="#flrgi2kzfa"/>
                </mask>
                <use fill="#A50064" xlink:href="#flrgi2kzfa"/>
                <path fill="#FFF" fill-rule="nonzero" d="M21.162 8c-2.12 0-3.837 1.616-3.837 3.609 0 1.994 1.718 3.61 3.837 3.61 2.12 0 3.838-1.616 3.838-3.61C25 9.616 23.282 8 21.162 8zm0 5.15c-.899 0-1.63-.688-1.63-1.533 0-.846.731-1.533 1.63-1.533.9 0 1.63.687 1.63 1.533 0 .845-.73 1.533-1.63 1.533zm-4.945 2.076h-2.208v-4.538c0-.34-.29-.611-.65-.611-.362 0-.65.271-.65.611v4.538H10.5v-4.538c0-.34-.29-.611-.65-.611-.362 0-.651.271-.651.611v4.538H7v-4.515C7 9.216 8.293 8 9.882 8c.65 0 1.245.204 1.726.544C12.164 8.18 12.74 8 13.334 8c1.59 0 2.883 1.216 2.883 2.71v4.516zm4.945 1.556c-2.12 0-3.837 1.615-3.837 3.609 0 1.993 1.718 3.609 3.837 3.609C23.282 24 25 22.384 25 20.39c0-1.993-1.718-3.609-3.838-3.609zm-7.827-.009c1.59 0 2.882 1.216 2.882 2.71V24h-2.208v-4.538c0-.34-.29-.611-.65-.611-.362 0-.65.272-.65.611V24H10.5v-4.538c0-.34-.29-.611-.65-.611-.362 0-.651.272-.651.611V24H7v-4.515c0-1.495 1.293-2.71 2.882-2.71.65 0 1.245.203 1.726.543.556-.363 1.132-.544 1.726-.544zm7.827 2.093c.9 0 1.63.687 1.63 1.532 0 .846-.73 1.533-1.63 1.533-.899 0-1.63-.687-1.63-1.533 0-.845.731-1.532 1.63-1.532z" mask="url(#hbv08tcejb)"/>
            </g>
        </g>
    </g>
</svg>
