<svg xmlns="http://www.w3.org/2000/svg" xmlns:xlink="http://www.w3.org/1999/xlink" width="32" height="32" viewBox="0 0 32 32">
    <defs>
        <rect id="lyfbqq4zxa" width="32" height="20" x="0" y="0" rx="1.818"/>
    </defs>
    <g fill="none" fill-rule="evenodd">
        <g>
            <g>
                <g transform="translate(-516 -50) translate(516 50) translate(0 6)">
                    <mask id="wimwizdyxb" fill="#fff">
                        <use xlink:href="#lyfbqq4zxa"/>
                    </mask>
                    <g mask="url(#wimwizdyxb)">
                        <g>
                            <g>
                                <path fill="#1A1F71" d="M8.92.175l-2.545 6.52-1.03-5.544C5.226.532 4.749.175 4.219.175H.058L0 .453c.854.188 1.824.49 2.412.815.36.198.463.371.581.842l1.95 7.644h2.584L11.488.175H8.92m3.617 0l-2.022 9.579h2.445L14.981.175h-2.444m14.018 2.587l.74 3.598h-2.027l1.287-3.598M26.196.175c-.468 0-.864.277-1.04.703l-3.668 8.876h2.566l.51-1.43H27.7l.297 1.43h2.26L28.285.175h-2.088M15.65 3.166c-.018 1.38 1.213 2.15 2.14 2.607.952.47 1.271.77 1.268 1.19-.007.643-.76.927-1.464.938-1.228.02-1.942-.336-2.51-.605l-.443 2.099c.57.266 1.624.498 2.719.508 2.567 0 4.247-1.284 4.256-3.277.01-2.527-3.45-2.667-3.426-3.797.008-.343.33-.708 1.038-.801.35-.047 1.315-.083 2.41.428l.43-2.03C21.478.208 20.72 0 19.779 0c-2.417 0-4.117 1.302-4.13 3.166" transform="translate(-1 -2) translate(1.891 6.517)"/>
                            </g>
                        </g>
                    </g>
                </g>
            </g>
        </g>
    </g>
</svg>
